<svg xmlns="http://www.w3.org/2000/svg" viewBox="1400 620 100 100"><style>.SFSymbolsPreviewWireframe{fill:#fff;opacity:1;stroke:#fff;stroke-width:.5}</style><g id="Regular-S"><path class="multicolor-0:tintColor hierarchical-0:secondary SFSymbolsPreviewWireframe" d="M42.041 4.785c.537 0 1.514-.195 2.588-.781C66.553-8.008 74.316-13.476 74.316-27.93v-29.394c0-4.004-1.904-5.225-4.931-6.543-3.955-1.71-20.117-7.422-24.073-8.79-1.025-.341-2.148-.585-3.271-.585s-2.295.342-3.271.586c-3.956.976-20.118 7.129-24.073 8.789-3.027 1.27-4.931 2.539-4.931 6.543v29.394c0 14.453 7.763 19.873 29.687 31.934 1.074.586 2.05.781 2.588.781Zm0-8.008c-.586 0-1.172-.146-2.49-.879-17.627-10.546-22.852-13.671-22.852-25.537v-26.367c0-.879.195-1.27.977-1.611 6.25-2.442 16.797-5.81 23.047-8.301a3.5 3.5 0 0 1 1.318-.244c.39 0 .83.049 1.318.244 6.201 2.49 16.602 6.152 22.998 8.3.83.294.977.733.977 1.612v26.367c0 11.866-5.225 14.99-22.852 25.537-1.27.733-1.855.88-2.441.88Z" style="-sfsymbols-motion-group:1;-sfsymbols-layer-tags:firewall" transform="translate(1407.8 696)"/><path class="multicolor-1:tintColor hierarchical-1:primary SFSymbolsPreviewWireframe" d="M45.85-52.1v3.711H27.54c-1.515 0-2.833 1.27-2.833 2.832 0 1.563 1.318 2.832 2.832 2.832h18.31v3.76c0 1.758 1.758 2.344 3.126 1.416l9.521-6.396c1.172-.782 1.123-2.393-.098-3.223l-9.423-6.397c-1.368-.878-3.125-.292-3.125 1.465ZM25.586-24.414l9.521 6.396c1.319.928 3.125.342 3.125-1.416v-3.76h18.262a2.834 2.834 0 0 0 2.832-2.831 2.834 2.834 0 0 0-2.832-2.832H38.232v-3.711c0-1.758-1.806-2.344-3.125-1.465l-9.423 6.396c-1.221.83-1.27 2.442-.098 3.223Z" style="-sfsymbols-motion-group:0;-sfsymbols-layer-tags:firewall" transform="translate(1407.8 696)"/></g></svg>